<?xml version="1.0" encoding="UTF-8"?>
<svg id="Layer_1" xmlns="http://www.w3.org/2000/svg" version="1.1" viewBox="0 0 150 150">
  <!-- Generator: Adobe Illustrator 29.1.0, SVG Export Plug-In . SVG Version: 2.1.0 Build 142)  -->
  <defs>
    <style>
      .st0 {
        fill: #fff;
      }
    </style>
  </defs>
  <path class="st0" d="M117.6,0H32.4C14.5,0,0,14.5,0,32.4v85.2c0,17.9,14.5,32.4,32.4,32.4h85.2c17.9,0,32.4-14.5,32.4-32.4V32.4c0-17.9-14.5-32.4-32.4-32.4ZM136.3,104.2c-2.3-.6-3.5-1.7-5.8-2.3v-4.6c3.2.9,9.1,1.5,15.4,4v8.1c-3.7-2.1-8.8-4.7-9.6-5.2ZM146,117.6c0,4.3-1,8.5-2.8,12.4-.6-1.1-1-2.1-1-2.6q-1.2-.6-2.9-.6c-.6-.6-1.7-.6-2.3-.6.4,2,1,3.9,1.7,5.8.4.9,1.1,1.7,2,2.2-1.6,2.2-3.5,4.2-5.7,5.9-.4-1.1-.7-2.3-.8-3.5-1.2-1.1,1.2-5.2-1.7-5.2-1.2-.6-4.6-1.7-4.6-1.7-.6,1.7-.6,5.2,0,6.9,0,1.3,1.6,4.4,2.8,6.2-2.2,1.1-4.6,2-7.1,2.5-.3-1.5-.7-3.1-1-4.1v-9.2c-2.3.6-2.9,1.2-3.4,1.2-1.7,1.2-2.9,1.7-2.9,2.9,0,2.3.6,4.6.6,5.8,0,1.7,0,2.9.6,3.5.8.3,1.4.4,2,.6-.6,0-1.1,0-1.7,0h-8.2c1-1.5,2-2.6,2.6-4.2.6-1.7,0-4.6-.6-7.5-2.3.6-6.9,1.2-6.9,2.9-.6,1.7,0,3.5,0,4.6.6,1.2.6,2.3.6,4.1h0c0,.1-4.7.1-4.7.1-.2-.8-.4-1.6-.5-2.4-.6-1.7,0-3.5-.6-5.2-.6-1.1-1.7-1.8-2.9-1.7-1.1,0-4-1.7-4-.6-2.9,0-.6,2.9-.6,4.6s1.7,3.5,3.2,5.3h-39.5c.6-.4,1.1-.8,1.6-1.3,1.2-1.7,4.6-5.2,5.8-6.4-1.2-1.1-1.7-2.9-2.3-4-2.3,0-11,3.5-11,3.5,1.5,2.6,2.8,5.3,3.7,8.2h-20.9c-15.7,0-28.4-12.7-28.4-28.4V32.4c0-15.7,12.7-28.4,28.4-28.4h85.2c12.3,0,23.1,7.9,27,19.5-4.6-3-9.6-5.8-14.6-7.8-3.5,2.9-5.8,5.2-7.5,5.2s-.6-3.5-.6-5.8c-1.7,0-2.9,0-4.6-.6-1.1,4-1.7,9.3-4.6,10.4-.7.4-1.5.6-2.3.6v-4.7c0-.6,2.3-4.6,1.7-5.2,0,0-5.2,1.2-6.4,1.7-.6.6-4,2.3-4.6,2.3-.8-.3-1.5-.5-2.3-.6-1.7-1.2-2.9-1.2-4.6-2.3-2.3,6.9-2.9,8.7-2.9,7.5,0,0-8.1-5.2-11-8.7-7.5,1.2-7.5,2.3-13.9,4.6-2.3,2.3-5.8,5.2-8.1,8.7-1.2,2.3-2.3,3.5-3.5,5.8l5.8,2.3c1.5-1.8,2.8-3.8,4.1-5.8,4.1-2.3,11-6.4,13.3-8.7.6,1.2,7.5,5.2,10.4,6.9,2.3,1.7,4.6,2.3,6.9,3.5,1.6-2.3,2.8-4.8,3.5-7.5,1.7,1.2,4.1,1.2,5.8,1.7,0,2.3,0,4.6.6,6.9,0,1.2,1.1.6,3.5-.6,3.5-1.2,6.9-1.7,8.7-2.3,4.1-2.3,6.4-6.9,9.8-6.9s8.1,1.7,9.3,2.9c1.7.6,2.9,1.1,4.6,1.1s3-1.2,4.3-2.3c.5,2.1.7,4.2.7,6.3v65c-6.4-2.6-11.5-3.6-16-3.6,0-.6-1.2-1.2,0-1.7,1-.7,2-1.4,2.9-2.3,1.6-2.1,2.8-4.4,3.5-6.9,1.7-3.5,3.5-2.3,4.6-9.8-1.7,0-2.3,1.1-4,1.7.6-1.7,1.2-3.5,1.2-5.2.6-3.5,1.7-5.8,1.7-9.8,1.7-.6,4.6-2.3,5.2-4.6,0-1.6.2-3.1.6-4.6,0-3.5.6-6.4-.6-8.7,0-.6-4.1-6.4-6.9-8.1-4-1.7-5.8-1.2-8.7-.6-3.5,0-8.1,3.5-8.1,9.8-3.5,0-10.4.6-14.5,4.1-3.5-1.7-6.4-2.3-9.3-2.9h-5.2c-.6-2.5-2-4.8-4-6.4-2.9-1.7-6.4-4-10.4-4s-3.5-.6-5.2.6-4.6,2.3-5.2,4.6c-1.2,2.9-2.3,5.2-2.3,8.1s1.7,5.2,3.5,8.1c.6,1.1,1.1,1.1,2.3,1.7.6,0,2.9,1.1,3.5,1.7s-.6,2.3-.6,5.8,0,2.9.6,5.2c0,2.2.4,4.3,1.1,6.4-1.7,0-2.9-1.7-4.1-.6,0,1.1,1.2,4,2.3,6.4,2.9,2.9,5.8,5.8,7.5,9.2,0,.6,0,1.7.6,1.7-4.1.6-8.1.6-12.2,1.7-3.8,1.3-7.4,2.8-11,4.6,0,1.4.2,2.7.6,4.1.6,0,5.8-2.9,10.4-4.1,7.5-2.3,11.6-1.7,11.6-1.7.6,1.2,1.2,2.9.6,3.5-7,2.9-13.8,6.4-20.3,10.4.6,1.2,0,2.9,1.2,4.1,6.3-3.7,12.9-7,19.7-9.8,2.3-.6,2.3,0,3.5,0,.6.6,1.7,2.9,2.9,2.9,1.7,0,3.5-1.7,5.2-2.3,3.5-1.2,6.4-2.3,9.8-2.9,1.2-.6,1.2-1.7,1.2-2.9q.6-1.1.6-2.9c0-.6-2.3-1.1-3.5-3.5-1.1-1.7,0-3.5-.6-3.5-1.7,1.2-4,2.3-4.6,0-.6-1.7-.6-4.1,1.2-4.6,5.8-2.3,12.2-2.3,17.9,0,1.1,0,1.7,1.2,1.7,2.3.6,1.2,0,2.3-1.1,3.5-1.7.6-3.5-1.7-3.5,0s-1.2,4-4,5.2c-.6.6,0,2.3.6,4.1,0,.6,0,1.7.6,1.7,2.3.6,5.8,1.2,7.5,2.3,2.3,1.2,6.4,4.6,6.9,4.1,1.7-1.1,2.3-2.9,3.5-4.1,5.8,2.7,10.7,4.3,17.7,8.6v4.1ZM120.7,86.3c-.6-1.2-1.2-2.3-1.7-3.5-1.2-1.2-1.7-1.2-3.5-2.3,0-4-.6-4-.6-8.1s-1.1-6.9-1.1-6.9c0-.6,1.7-2.3,3.5-2.9,0,0,11,0,16.2.6,0,0-.6,1.2-1.2,1.2-.6,1.2-1.7,1.7-2.9,2.3-.6,0-1.2,1.1-1.2,1.7-1.2,1.7-2.9,2.3-5.2,2.3s-3.5,0-4.6-2.3c0,0,.6,6.9.6,8.7,0,.3.2.6.5.6,0,0,0,0,0,0,2.3.6,2.9,2.9,4.1,4,.3.3.7.5,1.2.6,2.3,1.7,7.5,4,5.2,4,0,1.2-1.7,4.1-2.3,4.1-1.7-1.7-4.6-2.9-6.9-4h0ZM126.5,96.7c0,.6-.6,3.5-.6,3.5-2.3-.6-4.1-2.3-6.9-2.3q0-1.7.6-2.3c3.5-.6,5.2.6,6.9,1.1h0ZM111.5,51.6c-2.3-2.3,3.5-.6,6.4,0,1.2,0,11,2.3,4.6,5.2-1.1,1.1-4,.6-6.9.6,0-1.2,0-3.5-1.2-3.5-1.2-1.1-2.9-1.1-2.9-2.3h0ZM128.8,40c1.7-1.7,4.1-2.4,6.4-1.7,2.9.6,3.5,1.2,4.6,2.3,1.7,2.3,1.1,6.9.6,9.8-.6,1.7-2.2,2.9-4,2.9-2.9-3.5-5.8-5.8-9.8-6.9-.6-2.3,1.2-4.6,2.3-6.4h0ZM93,84.6c-.6,1.7-.6,2.9-2.3,3.5s-2.9,2.3-4.1,1.7c-1.7-1.2-1.2-4,0-5.8s3.5-2.9,5.2-3.5c2.3-.6,1.7-5.2,1.7-5.8.6-1.2,0-2.9,0-4-1.1.6-1.1,0-3.5.6-2.3,0-3.5-1.2-4.6-2.3s-4-3.5-5.2-5.8c2.9-.6,5.2-.6,8.1-.6h7.5c1.7.6,2.9,1.7,2.9,2.9s-.6,4-.6,4.6c-.6,3.5-.6,4.6-1.2,9.8v1.7c-.6,1.1-2.9,1.7-4.1,2.9ZM94.1,96.7c-.6.6-2.9,1.7-2.9,1.7-1.2.6-1.7,1.1-3.5,1.7-.5-1.1-.9-2.3-1.2-3.5,1.3-.3,2.7-.5,4.1-.6,1.1,0,2.3,0,3.5.6ZM76.8,54.5c-1.2-1.2-3.5-2.9-4.6-5.2-1.8-2.3-1.2-4.6-1.2-5.2,1.2-3.5,5.2-4.6,7.5-5.2,1.4,0,2.9.3,4,1.2,2.3,1.2,3.5,1.2,4.6,5.2,0,.6,0,1.1-.6,1.1,0,0-3.5,2.3-4.6,3.5-2.9,1.7-3.5,4.6-5.2,4.6h0ZM94.1,57.9h-2.9c0-1.7,1.2-2.3,2.9-4.1,1.7-1.1,3.5-2.3,4.6-2.3,1.2-.6,3.5-1.1,3.5,0,0,2.3-1.7,3.5-3.5,5.8-1.1,1.7-1.7.6-4.6.6h0ZM50.7,93.2c-1.7,2.3-5.2,5.8-6.4,7.5l-.6-6.9q-.6-1.7-.6-5.2c2.9-1.7,4-2.9,6.9-4.6,1.2-1.1,5.2-2.3,11-4,0,2.3-.6,4-1.2,6.4-3.5,1.7-6.6,4.1-9.2,7h0ZM47.8,123.9c0-1.2-.6-2.3-1.1-3.5-.6-1.7-.6-3.5-1.2-5.2,0-1.7-.6-8.1-.6-9.3v-2.9c2.3-1.2,5.2-2.9,7.5-4.1-.6,2.9-1.2,4.1-1.2,8.7s1.2,4.6,1.7,8.7c-1.2,2.3-1.7,4.1-3.5,5.8-.4.7-1,1.3-1.7,1.7h0ZM47.3,58.5c2.3-1.1,3.5-2.3,5.8-4-.6-3.5-1.2-5.8-1.2-8.7s0-3.5,1.2-5.2c1.1-2.3,4-2.3,6.3-1.7-.6,4-1.1,5.2-1.1,9.8s1.1,3.5,1.7,4.6,1.2,2.3,1.2,3.5-.6,1.1-1.2,1.7c-1.7,1.2-2.3.6-2.9,1.8-2.9,2.3-4,3.5-6.4,5.2q-1.2,1.2-2.3,2.9s-.6-6.4-1.2-9.9h0ZM48.4,81.7c-.6-1.7-.6-3.5-1.2-5.2,0-.6,0-4.6.6-6.4,0-1.1,5.2-2.9,8.1-3.5,1.1,0,5.8-1.2,6.4,0s-.6,1.1-.6,4.6c-.6,1.1-1.2.6-2.3,1.7-.6.6-6.9,5.2-7.5,5.8-1.2.6-1.8,1.2-3.5,2.9h0ZM85.4,129.1c.6,1.1,1.2,4.1,1.2,4.1,0,4-1.7,5.2-2.3,7.5-1.2-1.7-1.7-4-2.3-5.8s-1.8-2.9-2.9-4.6c.6-.6,1.2-5.2,1.2-5.2.6-.6,1.8.6,2.3.6,1.3.8,2.3,2.1,2.9,3.5h0ZM106.3,107.7c5.8,0,11.6.6,16.2,3.5,0,2.3,0,5.2-1.1,7.5,0,.6-1.2,2.9-2.3,4.1-1.7-2.3-5.2-4.6-5.2-4.6.6,2.3,0,2.9-.6,5.8,0,.6-4,.6-4,.6-3.5-1.7-4.1-4-4.1-4,0,.6-.6,4.6-2.9,4.6s-4,0-4-1.7c-.6-1.7-.6-2.9-.6-4.6v-2.3c-1.7.6-2.9,2.3-4.1,3.5-.6,0-1.1-1.2-1.7-1.2-1-2-1.8-4.1-2.3-6.3,5.8-4.1,11.6-4.6,16.8-4.6h0ZM72.7,128.5c.6,2.9,2.3,8.1,2.3,8.1-1.7-1.1-3.5-1.7-5.2-2.9-1.1-.6-2.3-1.2-2.3-1.7-.6-2.3-1-4.6-1.2-6.9,0-2.3,1.2-4.6,2.3-4.6,1.1.6,2.9,1.2,3.5,2.3,1.1,1.8,0,4.1.6,5.8h0ZM55.4,120.4c1.7,1.7,2.3,2.3,3.5,5.2-.6.6-4,3.5-6.9,6.9,0,1.2-1.8,2.3-1.8,2.3,0-2.3-.6-5.2-.6-6.4-.6-1.2-1.2-1.7-1.2-2.9.6-.6,1.7-1.2,2.9-1.7.6-1.2,3.5-2.9,4-3.5h0Z"/>
</svg>