<?xml version="1.0" encoding="UTF-8"?>
<svg id="Layer_1" xmlns="http://www.w3.org/2000/svg" version="1.1" viewBox="0 0 150 150">
  <!-- Generator: Adobe Illustrator 29.1.0, SVG Export Plug-In . SVG Version: 2.1.0 Build 142)  -->
  <defs>
    <style>
      .st0 {
        fill: #fff;
      }

      .st1 {
        fill: #ff6200;
      }
    </style>
  </defs>
  <path class="st1" d="M121,150H31c-16.6,0-30-13.4-30-30V30C1,13.4,14.4,0,31,0h90c16.6,0,30,13.4,30,30h0v90c0,16.6-13.4,30-30,30h0Z"/>
  <path class="st0" d="M57.1,148.7c-.5.5-1.1.9-1.6,1.3h-2.4c-1-3-2.3-5.9-3.9-8.7,0,0,9.2-3.7,11.6-3.7.6,1.2,1.2,3.1,2.5,4.3-1.2,1.2-4.9,4.9-6.1,6.7h0ZM61.9,71c0-3.7,1.2-3.7.6-4.9s-5.5,0-6.7,0c-3.1.6-8.6,2.4-8.6,3.6-.6,1.8-.6,6.1-.6,6.7.6,1.8.6,3.7,1.2,5.5,1.8-1.8,2.4-2.5,3.7-3.1.6-.6,7.3-5.5,7.9-6.1,1.2-1.2,1.8-.6,2.4-1.8h0ZM44.2,104.7v3c0,1.2.6,7.9.6,9.8.6,1.8.6,3.7,1.2,5.5.6,1.2,1.2,2.4,1.2,3.7.8-.4,1.4-1.1,1.8-1.8,1.8-1.8,2.4-3.7,3.7-6.1-.6-4.3-1.8-7.9-1.8-9.2,0-4.9.6-6.1,1.2-9.2-2.5,1.2-5.5,3-7.9,4.3h0ZM79.1,19.7c.6,1.2,7.9,5.5,11,7.3,2.4,1.8,4.9,2.5,7.3,3.7,1.7-2.4,2.9-5.1,3.7-7.9,1.8,1.2,4.3,1.2,6.1,1.8,0,2.4,0,4.9.6,7.3,0,1.2,1.2.6,3.7-.6,3.7-1.2,7.3-1.8,9.2-2.4,4.3-2.4,6.7-7.3,10.4-7.3s8.6,1.8,9.8,3c1.8.6,3.1,1.2,4.9,1.2s3.2-1.3,4.6-2.4c-.2-.9-.5-1.9-.8-2.8-4.9-3.1-10.1-6.2-15.4-8.3-3.7,3.1-6.1,5.5-8,5.5s-.6-3.7-.6-6.1c-1.8,0-3,0-4.9-.6-1.2,4.3-1.8,9.8-4.9,11-.7.4-1.6.6-2.4.6v-4.9c0-.6,2.4-4.9,1.8-5.5,0,0-5.5,1.2-6.7,1.8-.6.6-4.3,2.4-4.9,2.4-.8-.3-1.6-.5-2.5-.6-1.8-1.2-3-1.2-4.9-2.4-2.4,7.3-3.1,9.2-3.1,7.9,0,0-8.6-5.5-11.6-9.2-7.9,1.2-7.9,2.4-14.7,4.9-2.5,2.4-6.1,5.5-8.5,9.2-1.2,2.4-2.5,3.6-3.7,6.1l6.1,2.4c1.6-1.9,3-4,4.3-6.1,4.3-2.4,11.6-6.7,14.1-9.2h0ZM73,125.4c-.6-1.2-2.5-1.8-3.7-2.4-1.2,0-2.5,2.4-2.5,4.9.2,2.5.6,4.9,1.2,7.3,0,.6,1.2,1.2,2.4,1.8,1.8,1.2,3.7,1.9,5.5,3.1,0,0-1.8-5.5-2.4-8.6-.6-1.8.6-4.3-.6-6.1h0ZM49.7,138.3s1.9-1.2,1.9-2.5c3.1-3.7,6.7-6.7,7.3-7.3-1.2-3.1-1.8-3.7-3.7-5.5-.6.6-3.7,2.4-4.3,3.7-1.2.6-2.4,1.2-3,1.8,0,1.2.6,1.8,1.2,3.1,0,1.2.6,4.2.6,6.7h0ZM61.3,80.2c-6.1,1.8-10.4,3.1-11.6,4.3-3,1.9-4.3,3.1-7.3,4.9q0,3.7.6,5.5l.6,7.3c1.2-1.8,4.9-5.5,6.7-7.9,2.7-3.1,6.1-5.6,9.8-7.3.6-2.5,1.2-4.3,1.2-6.7h0ZM52.8,38.6c-1.2,1.8-1.2,3.7-1.2,5.5,0,3,.6,5.5,1.2,9.2-2.5,1.8-3.7,3.1-6.1,4.3.6,3.7,1.2,10.4,1.2,10.4q1.2-1.8,2.4-3.1c2.5-1.8,3.7-3.1,6.7-5.5.6-1.2,1.2-.6,3.1-1.9.6-.6,1.2-1.2,1.2-1.8,0-1.2-.6-2.5-1.2-3.7s-1.8-4.3-1.8-4.9c0-4.9.6-6.1,1.2-10.4-2.4-.6-5.5-.6-6.7,1.8h0ZM114.5,137.7c-2.4.6-7.3,1.2-7.3,3.1-.6,1.8,0,3.7,0,4.9.6,1.2.6,2.5.6,4.3h0c0,.1,4.6.1,4.6.1,1.1-1.6,2.2-2.7,2.7-4.4.6-1.8,0-4.9-.6-7.9h0ZM91.3,114.4c.6,2.3,1.4,4.6,2.5,6.7.6,0,1.2,1.2,1.8,1.2,1.2-1.2,2.5-3.1,4.3-3.7v2.4c0,1.8,0,3.1.6,4.9,0,1.8,1.8,1.8,4.3,1.8s3.1-4.3,3.1-4.9c0,0,.6,2.4,4.3,4.3,0,0,4.3,0,4.3-.6.6-3.1,1.2-3.7.6-6.1,0,0,3.7,2.5,5.5,4.9,1.2-1.2,2.4-3.7,2.4-4.3,1.2-2.4,1.2-5.5,1.2-7.9-4.9-3.1-11-3.7-17.1-3.7-5.5,0-11.6.6-17.7,4.9h0ZM101.7,141.9c-.6-1.1-1.8-1.9-3.1-1.8-1.2,0-4.3-1.8-4.3-.6-3.1,0-.6,3.1-.6,4.9s1.8,3.7,3.4,5.6h5.7c-.3-.8-.4-1.7-.5-2.6-.6-1.8,0-3.7-.6-5.5h0ZM134.1,94.9c4.7,0,10.2,1.1,16.9,3.8v4.1c-6.7-2.7-12.9-3.3-16.3-4.3v4.9c2.4.6,3.7,1.8,6.1,2.4.9.4,6.3,3.3,10.2,5.5v4.3c-7.4-4.5-12.6-6.3-18.8-9.1-1.2,1.2-1.8,3.1-3.7,4.3-.6.6-4.9-3.1-7.3-4.3-1.8-1.2-5.5-1.8-7.9-2.4-.6,0-.6-1.2-.6-1.8-.6-1.8-1.2-3.7-.6-4.3,3.1-1.2,4.3-3.7,4.3-5.5s1.8.6,3.7,0c1.2-1.2,1.8-2.4,1.2-3.7,0-1.2-.6-2.4-1.8-2.4-6.1-2.5-12.9-2.5-19,0-1.8.6-1.8,3-1.2,4.9.6,2.4,3.1,1.2,4.9,0,.6,0-.6,1.8.6,3.7,1.2,2.4,3.7,3,3.7,3.7q0,1.8-.6,3.1c0,1.2,0,2.5-1.2,3.1-3.7.6-6.7,1.8-10.4,3-1.8.6-3.7,2.5-5.5,2.5s-2.4-2.5-3-3.1c-1.2,0-1.2-.6-3.7,0-7.2,3-14.1,6.4-20.8,10.4-1.2-1.2-.6-3-1.2-4.3,6.8-4.3,14-8,21.4-11,.6-.6,0-2.4-.6-3.7,0,0-4.3-.6-12.2,1.8-4.9,1.2-10.4,4.3-11,4.3-.4-1.4-.6-2.8-.6-4.3,3.8-1.9,7.6-3.5,11.6-4.9,4.3-1.2,8.6-1.2,12.9-1.8-.6,0-.6-1.2-.6-1.8-1.8-3.7-4.9-6.7-7.9-9.8-1.2-2.5-2.5-5.5-2.5-6.7,1.2-1.2,2.5.6,4.3.6-.8-2.2-1.2-4.4-1.2-6.7q-.6-2.4-.6-5.5c0-3.7,1.2-5.5.6-6.1s-3.1-1.8-3.7-1.8c-1.2-.6-1.8-.6-2.4-1.8-1.8-3.1-3.7-5.5-3.7-8.6s1.2-5.5,2.4-8.6c.6-2.4,3.7-3.7,5.5-4.9s3.7-.6,5.5-.6c4.3,0,7.9,2.4,11,4.3,2.2,1.7,3.7,4.1,4.3,6.7h5.5c3.1.6,6.1,1.2,9.8,3.1,4.3-3.7,11.6-4.3,15.3-4.3,0-6.7,4.9-10.4,8.5-10.4,3.1-.6,4.9-1.2,9.2.6,3,1.8,7.3,7.9,7.3,8.6,1.2,2.5.6,5.5.6,9.2-.4,1.6-.6,3.2-.6,4.9-.6,2.4-3.7,4.3-5.5,4.9,0,4.3-1.2,6.7-1.8,10.4,0,1.8-.6,3.7-1.2,5.5,1.8-.6,2.5-1.8,4.3-1.8-1.2,7.9-3,6.7-4.9,10.4-.7,2.7-2,5.2-3.7,7.3-.9.9-2,1.7-3.1,2.4-1.2.6,0,1.2,0,1.8h0ZM83.4,48.4c1.2-1.2,4.9-3.7,4.9-3.7.6,0,.6-.6.6-1.2-1.2-4.3-2.4-4.3-4.9-5.5-1.2-.9-2.8-1.3-4.3-1.2-2.5.6-6.7,1.8-7.9,5.5,0,.6-.6,3.1,1.2,5.5,1.2,2.5,3.7,4.3,4.9,5.5,1.8,0,2.4-3.1,5.5-4.9h0ZM96.2,97.9c-1.2-.6-2.4-.6-3.7-.6-1.4,0-2.9.3-4.3.6.3,1.3.7,2.5,1.2,3.7,1.8-.6,2.4-1.2,3.7-1.8,0,0,2.4-1.2,3-1.8h0ZM101.1,64.9c0-1.2-1.2-2.5-3-3.1h-7.9c-3.1,0-5.5,0-8.6.6,1.2,2.5,4.3,4.9,5.5,6.1s2.5,2.4,4.9,2.4c2.4-.6,2.4,0,3.7-.6,0,1.2.6,3.1,0,4.3,0,.6.6,5.5-1.8,6.1-1.8.6-4.3,1.8-5.5,3.7s-1.8,4.9,0,6.1c1.2.6,2.4-1.2,4.3-1.8s1.8-1.8,2.4-3.7c1.2-1.2,3.7-1.8,4.3-3.1v-1.8c.6-5.5.6-6.7,1.2-10.4,0-.6.6-4.2.6-4.9h0ZM104.8,50.2c0-1.2-2.4-.6-3.7,0-1.2,0-3,1.2-4.9,2.4-1.8,1.8-3.1,2.5-3.1,4.3h3.1c3.1,0,3.7,1.2,4.9-.6,1.8-2.4,3.6-3.7,3.6-6.1h0ZM130.4,44.7c4.3,1.2,7.3,3.7,10.4,7.3,1.9,0,3.6-1.2,4.3-3.1.6-3.1,1.2-7.9-.6-10.4-1.2-1.2-1.8-1.8-4.9-2.5-2.4-.7-5,0-6.7,1.8-1.2,1.8-3.1,4.3-2.5,6.7h0ZM117.6,52.7c1.2,0,1.2,2.5,1.2,3.7,3.1,0,6.1.6,7.3-.6,6.7-3.1-3.6-5.5-4.9-5.5-3.1-.6-9.2-2.5-6.7,0,0,1.2,1.8,1.2,3,2.4h0ZM130.4,97.9c-1.8-.6-3.7-1.8-7.3-1.2q-.6.6-.6,2.4c3,0,4.9,1.8,7.3,2.4,0,0,.6-3.1.6-3.7h0ZM134.1,86.9c2.4,0-3.1-2.4-5.5-4.3-.5,0-.9-.3-1.2-.6-1.2-1.2-1.8-3.7-4.3-4.3-.3,0-.6-.3-.6-.6,0,0,0,0,0,0,0-1.8-.6-9.1-.6-9.1,1.2,2.4,3.7,2.4,4.9,2.4,2.5,0,4.3-.6,5.5-2.4,0-.6.6-1.8,1.2-1.8,1.2-.6,2.5-1.2,3.1-2.5.6,0,1.2-1.2,1.2-1.2-5.5-.6-17.1-.6-17.1-.6-1.8.6-3.7,2.5-3.7,3.1,0,0,1.2,6.7,1.2,7.3,0,4.3.6,4.3.6,8.6,1.8,1.2,2.4,1.2,3.7,2.5.6,1.2,1.2,2.4,1.8,3.7,2.4,1.2,5.5,2.4,7.3,4.3.6,0,2.4-3.1,2.4-4.3h0ZM138.4,140.1c-1.2-1.2,1.2-5.5-1.8-5.5-1.2-.6-4.9-1.8-4.9-1.8-.6,1.8-.6,5.5,0,7.3,0,1.3,1.7,4.7,3,6.6,1.6-.8,3.2-1.8,4.6-2.9-.5-1.2-.8-2.4-.9-3.7h0ZM88.2,136.4s-.6-3.1-1.2-4.3c-.6-1.5-1.7-2.8-3.1-3.7-.6,0-1.8-1.2-2.5-.6,0,0-.6,4.9-1.2,5.5,1.2,1.8,2.4,3.1,3.1,4.9s1.2,4.3,2.4,6.1c.6-2.5,2.4-3.7,2.4-7.9h0ZM127.2,149.4c-.4-1.6-.8-3.3-1-4.4v-9.8c-2.4.6-3.1,1.2-3.6,1.2-1.8,1.2-3.1,1.8-3.1,3.1,0,2.4.6,4.9.6,6.1,0,1.8,0,3.1.6,3.7.9.3,1.5.4,2.2.7,1.5,0,2.9-.3,4.4-.6h0ZM146.9,130.3q-1.2-.6-3.1-.6c-.6-.6-1.8-.6-2.5-.6.5,2.1,1.1,4.1,1.8,6.1.5.9,1.2,1.8,2.1,2.3,1-1.4,1.9-2.9,2.7-4.5-.7-1.2-1.1-2.2-1.1-2.7h0Z"/>
</svg>